<?xml version="1.0" encoding="UTF-8"?>
<svg width="47px" height="50px" viewBox="0 0 47 50" version="1.1" xmlns="http://www.w3.org/2000/svg" xmlns:xlink="http://www.w3.org/1999/xlink">
    <!-- Generator: Sketch 54.1 (76490) - https://sketchapp.com -->
    <title>Icon</title>
    <desc>Created with Sketch.</desc>
    <g id="Main" stroke="none" stroke-width="1" fill="none" fill-rule="evenodd">
        <g id="Desktop-HD" transform="translate(-1056.000000, -873.000000)" fill="#0075D7" fill-rule="nonzero">
            <g id="Main-Section" transform="translate(201.000000, 404.000000)">
                <g id="Centered-Features" transform="translate(45.000000, 432.000000)">
                    <g id="3" transform="translate(718.000000, 0.000000)">
                        <path d="M92.6239889,74.5 C93.8491215,76.625 96.6005978,77.7484375 100.578767,77.7484375 C100.578767,77.7484375 100.578767,77.7484375 100.580328,77.7484375 C102.368866,77.7484375 104.336881,77.496875 106.389173,77.0640625 C108.364992,83.125 111.519124,87 115.149262,87 C118.7794,87 121.933532,83.125 123.909351,77.0640625 C125.963203,77.4953125 127.931219,77.7484375 129.719757,77.7484375 C129.719757,77.7484375 129.719757,77.7484375 129.719757,77.7484375 C133.696366,77.7484375 136.447842,76.625 137.672974,74.5 C139.258624,71.7484375 137.855574,67.125 133.044002,62 C137.855574,56.875 139.258624,52.2515625 137.672974,49.5 C136.447842,47.375 133.696366,46.2515625 129.718196,46.2515625 C127.929658,46.2515625 125.960082,46.503125 123.90779,46.9359375 C121.933532,40.875 118.7794,37 115.149262,37 C111.519124,37 108.364992,40.875 106.389173,46.9359375 C104.335321,46.503125 102.365744,46.2515625 100.578767,46.2515625 C96.6005978,46.2515625 93.8491215,47.375 92.6239889,49.5 C91.0383395,52.2515625 92.4413895,56.875 97.2529614,62 C92.4413895,67.125 91.0367788,71.7484375 92.6239889,74.5 Z M114.685185,85.1481481 C111.925117,85.1481481 109.408188,81.7442288 107.740741,76.5121926 C109.996522,75.9224276 112.342354,75.0880881 114.685185,74.037037 C117.028016,75.0880881 119.373848,75.9224276 121.62963,76.5121926 C119.962183,81.7442288 117.445253,85.1481481 114.685185,85.1481481 Z M105.888889,62.462963 C105.888889,60.6210185 105.984568,58.8281292 106.148148,57.0937897 C107.526235,56.1095204 108.983025,55.1505699 110.518519,54.2406747 C112.037037,53.3418564 113.591049,52.5364013 115.148148,51.8148148 C116.705247,52.5348189 118.259259,53.340274 119.777778,54.2406747 C121.313272,55.1489875 122.768519,56.107938 124.148148,57.0937897 C124.311728,58.8281292 124.407407,60.6210185 124.407407,62.462963 C124.407407,64.3049074 124.311728,66.0977967 124.148148,67.8321362 C122.770062,68.8164055 121.313272,69.775356 119.777778,70.6852512 C118.259259,71.5840695 116.705247,72.3895246 115.148148,73.1111111 C113.591049,72.391107 112.037037,71.5856519 110.518519,70.6852512 C108.983025,69.7769384 107.527778,68.8179879 106.148148,67.8321362 C105.984568,66.0977967 105.888889,64.3049074 105.888889,62.462963 Z M104.037037,66.6296296 C102.317803,65.2619209 100.760591,63.8576764 99.4074074,62.462963 C100.760591,61.0682495 102.317803,59.664005 104.037037,58.2962963 C103.948525,59.6528854 103.890017,61.0364793 103.890017,62.462963 C103.890017,63.8894466 103.948525,65.2730405 104.037037,66.6296296 Z M105.888889,54.5925926 C106.157128,52.6080428 106.533247,50.7389254 107.002666,49.037037 C108.744764,49.4824878 110.552465,50.0981274 112.37037,50.8410387 C111.259509,51.3871229 110.151564,51.9613252 109.065485,52.5976835 C107.938588,53.2592001 106.896245,53.9251564 105.888889,54.5925926 Z M117,50.8410387 C118.817905,50.0981274 120.625606,49.4824878 122.367705,49.037037 C122.837124,50.7389254 123.213242,52.6080428 123.481481,54.5925926 C122.475584,53.9251564 121.431782,53.2592001 120.304885,52.5976835 C119.220265,51.9613252 118.112319,51.3871229 117,50.8410387 Z M125.333333,58.2962963 C127.054067,59.664005 128.609779,61.066661 129.962963,62.462963 C128.609779,63.8576764 127.052567,65.2619209 125.333333,66.6296296 C125.421845,65.2730405 125.480353,63.8894466 125.480353,62.462963 C125.480353,61.0364793 125.421845,59.6528854 125.333333,58.2962963 L125.333333,58.2962963 Z M123.481481,69.4074074 C123.213242,71.3919572 122.837124,73.2610746 122.367705,74.962963 C120.625606,74.5175122 118.817905,73.9018726 117,73.1589613 C118.112319,72.614357 119.220265,72.0386748 120.306343,71.4023165 C121.431782,70.7407999 122.474126,70.0748436 123.481481,69.4074074 L123.481481,69.4074074 Z M109.064028,71.4023165 C110.150106,72.0386748 111.258051,72.614357 112.37037,73.1589613 C110.552465,73.9018726 108.744764,74.5175122 107.002666,74.962963 C106.533247,73.2610746 106.157128,71.3919572 105.888889,69.4074074 C106.894787,70.0748436 107.93713,70.7407999 109.064028,71.4023165 Z M136.008352,73.4322736 C135.118068,75.0176384 132.843908,75.8888889 129.603759,75.8888889 C128.004881,75.8888889 126.245511,75.6617414 124.407407,75.2743461 C125.006986,73.0588805 125.456671,70.5944862 125.735263,67.9496186 C128.076043,66.2631265 130.051929,64.5766345 131.700771,62.9259259 C135.534443,67.0985936 137.342264,71.0565602 136.008352,73.4322736 Z M129.603496,48.1111111 C132.843481,48.1111111 135.11904,48.9839174 136.007765,50.5677264 C137.343124,52.9434398 135.53388,56.9014064 131.700402,61.0740741 C130.051643,59.4249213 128.075858,57.7368735 125.735196,56.0503814 C125.456618,53.4055138 125.006956,50.9411195 124.407407,48.7256539 C126.245418,48.3382586 128.006213,48.1111111 129.603496,48.1111111 Z M114.685185,38.8518519 C117.445253,38.8518519 119.962183,42.2557712 121.62963,47.4878074 C119.373848,48.0775724 117.028016,48.9119119 114.685185,49.962963 C112.342354,48.9119119 109.996522,48.0775724 107.740741,47.4878074 C109.408188,42.2557712 111.925117,38.8518519 114.685185,38.8518519 Z M94.2879439,50.5677264 C95.1782279,48.9823616 97.4523886,48.1111111 100.692538,48.1111111 C102.291415,48.1111111 104.050786,48.3382586 105.888889,48.7256539 C105.28931,50.9411195 104.839626,53.4055138 104.561033,56.0503814 C102.220253,57.7368735 100.244368,59.4233655 98.5955253,61.0740741 C94.7618536,56.9014064 92.9540321,52.9434398 94.2879439,50.5677264 Z M98.5955253,62.9259259 C100.244368,64.5750787 102.220253,66.2631265 104.561033,67.9496186 C104.839626,70.5944862 105.28931,73.0588805 105.888889,75.2743461 C104.0523,75.6617414 102.292929,75.8888889 100.694052,75.8888889 C100.694052,75.8888889 100.692538,75.8888889 100.692538,75.8888889 C97.4523886,75.8888889 95.1767138,75.0160826 94.2879439,73.4322736 C92.9540321,71.0565602 94.7618536,67.0985936 98.5955253,62.9259259 L98.5955253,62.9259259 Z M114.685185,65.7037037 C116.981852,65.7037037 118.851852,64.042963 118.851852,62 C118.851852,59.957037 116.981852,58.2962963 114.685185,58.2962963 C112.388519,58.2962963 110.518519,59.957037 110.518519,62 C110.518519,64.042963 112.388519,65.7037037 114.685185,65.7037037 Z M114.685185,60.1481481 C115.96142,60.1481481 117,61.1867284 117,62.462963 C117,63.7391975 115.96142,64.7777778 114.685185,64.7777778 C113.408951,64.7777778 112.37037,63.7391975 112.37037,62.462963 C112.37037,61.1867284 113.408951,60.1481481 114.685185,60.1481481 Z" id="Icon"></path>
                    </g>
                </g>
            </g>
        </g>
    </g>
</svg>