<?xml version="1.0" encoding="UTF-8"?>
<svg width="30px" height="51px" viewBox="0 0 30 51" version="1.1" xmlns="http://www.w3.org/2000/svg" xmlns:xlink="http://www.w3.org/1999/xlink">
    <!-- Generator: Sketch 54.1 (76490) - https://sketchapp.com -->
    <title>Icon</title>
    <desc>Created with Sketch.</desc>
    <g id="Main" stroke="none" stroke-width="1" fill="none" fill-rule="evenodd">
        <g id="Desktop-HD" transform="translate(-704.000000, -874.000000)" fill="#0075D7" fill-rule="nonzero">
            <g id="Main-Section" transform="translate(201.000000, 404.000000)">
                <g id="Centered-Features" transform="translate(45.000000, 432.000000)">
                    <g id="2" transform="translate(359.000000, 0.000000)">
                        <path d="M101.690067,88.9856481 L126.641334,88.9856481 C127.931002,88.9856481 128.980515,87.9340856 128.980515,86.6418981 L128.980515,41.3293981 C128.980515,40.0372106 127.931002,38.9856481 126.641334,38.9856481 L101.690067,38.9856481 C100.400398,38.9856481 99.3508854,40.0372106 99.3508854,41.3293981 L99.3508854,86.6418981 C99.3508854,87.9340856 100.400398,88.9856481 101.690067,88.9856481 Z M100.276811,41.624537 C100.276811,41.1900926 100.630624,40.8375 101.066572,40.8375 L126.338903,40.8375 C126.774851,40.8375 127.128663,41.1900926 127.128663,41.624537 L127.128663,87.2726852 C127.128663,87.7071296 126.774851,88.0597222 126.338903,88.0597222 L101.066572,88.0597222 C100.630624,88.0597222 100.276811,87.7071296 100.276811,87.2726852 L100.276811,41.624537 Z M102.900268,81.5782407 L124.505206,81.5782407 C124.931132,81.5782407 125.276811,81.2294192 125.276811,80.7996212 L125.276811,48.097601 C125.276811,47.667803 124.931132,47.3189815 124.505206,47.3189815 L102.900268,47.3189815 C102.474342,47.3189815 102.128663,47.667803 102.128663,48.097601 L102.128663,80.7996212 C102.128663,81.2294192 102.474342,81.5782407 102.900268,81.5782407 Z M103.980515,48.2449074 L124.350885,48.2449074 L124.350885,79.7263889 L103.980515,79.7263889 L103.980515,48.2449074 Z M113.239774,83.8930556 C113.239774,84.6597222 113.861997,85.2819444 114.628663,85.2819444 C115.39533,85.2819444 116.017552,84.6597222 116.017552,83.8930556 C116.017552,83.1263889 115.39533,82.5041667 114.628663,82.5041667 C113.861997,82.5041667 113.239774,83.1263889 113.239774,83.8930556 Z M110.369404,45.4671296 L117.036071,45.4671296 C117.496071,45.4671296 117.869404,45.0523148 117.869404,44.5412037 C117.869404,44.0300926 117.496071,43.6152778 117.036071,43.6152778 L110.369404,43.6152778 C109.909404,43.6152778 109.536071,44.0300926 109.536071,44.5412037 C109.536071,45.0523148 109.909404,45.4671296 110.369404,45.4671296 Z" id="Icon"></path>
                    </g>
                </g>
            </g>
        </g>
    </g>
</svg>