<?xml version="1.0" encoding="UTF-8"?>
<svg width="50px" height="50px" viewBox="0 0 50 50" version="1.1" xmlns="http://www.w3.org/2000/svg" xmlns:xlink="http://www.w3.org/1999/xlink">
    <!-- Generator: Sketch 54.1 (76490) - https://sketchapp.com -->
    <title>Tools</title>
    <desc>Created with Sketch.</desc>
    <g id="Main" stroke="none" stroke-width="1" fill="none" fill-rule="evenodd">
        <g id="Desktop-HD" transform="translate(-336.000000, -872.000000)" fill="#3ED0A6" fill-rule="nonzero">
            <g id="Main-Section" transform="translate(201.000000, 404.000000)">
                <g id="Centered-Features" transform="translate(45.000000, 432.000000)">
                    <g id="1">
                        <path d="M90.8915167,44.7340498 C89.5634011,46.0572437 89.8472133,47.9203258 90.9040609,48.970455 C90.9463975,49.0110246 95.1910361,53.0461421 101.1605,58.9864717 C101.314166,59.1393879 101.514873,59.2142857 101.71558,59.2142857 C101.916287,59.2142857 102.116994,59.1378276 102.27066,58.9864717 C102.576425,58.6821995 102.576425,58.1875621 102.27066,57.8832899 C101.370615,56.9876374 100.514475,56.1403563 99.7022386,55.338326 L102.193827,52.8588977 C102.499592,52.5546255 102.499592,52.0599881 102.193827,51.7557159 C101.888063,51.4514437 101.390999,51.4514437 101.085235,51.7557159 L98.5873741,54.2413857 C97.1902656,52.8682599 95.9593674,51.6698955 94.9574006,50.6977849 L100.625804,45.0570464 C100.931569,44.7527742 100.931569,44.2581368 100.625804,43.9538646 C100.32004,43.6495924 99.8229764,43.6495924 99.5172118,43.9538646 L93.83156,49.6117672 C92.677495,48.4992232 92.0126532,47.8672732 92.0016771,47.8563506 C91.6708242,47.5271125 91.2364818,46.6002526 92.0016771,45.8387919 L99.8417926,38.0369406 C100.144421,37.7311081 100.950385,37.124124 101.83475,37.9994917 C101.873951,38.0431821 105.833209,42.518324 111.87637,48.531991 C112.182135,48.8362632 112.679198,48.8362632 112.984962,48.531991 C113.290727,48.2277188 113.290727,47.7330814 112.984962,47.4288092 C106.979434,41.4541515 103.049968,37.0133377 102.977839,36.9321985 C101.516441,35.4810542 99.7539833,35.9163975 98.7332003,36.9321985 L90.8915167,44.7340498 Z M123.072018,73.7089946 L120.55544,76.2151114 C119.788287,75.4412099 118.983172,74.6310564 118.13535,73.7862271 C117.826907,73.4788732 117.325489,73.4788732 117.017046,73.7862271 C116.708604,74.0935811 116.708604,74.5932283 117.017046,74.9005822 C122.87588,80.7371548 126.967889,85.0968523 127.026414,85.1598992 C127.568957,85.7021031 128.312384,86 129.119081,86 C129.949504,86 130.789418,85.6768843 131.309816,85.1567469 L139.215445,77.1860346 C140.210371,76.1946211 140.267315,74.5128434 139.338822,73.5844769 L128.73155,63.0162297 C128.423107,62.7088758 127.92169,62.7088758 127.613247,63.0162297 C127.304804,63.3235837 127.304804,63.8232309 127.613247,64.1305848 L138.220519,74.6988319 C138.536871,75.0140667 138.476764,75.6949739 138.09556,76.0748319 L130.18835,84.0455442 C130.006447,84.2283803 129.593608,84.4238259 129.119081,84.4238259 C128.847018,84.4238259 128.457906,84.3576266 128.163699,84.0628821 C128.147881,84.0455442 127.485124,83.3409943 126.335186,82.1415259 L132.099114,76.3979476 C132.407557,76.0905936 132.407557,75.5909465 132.099114,75.2835925 C131.790671,74.9762386 131.289253,74.9762386 130.980811,75.2835925 L125.240609,81.0035282 C124.253592,79.9805912 123.043546,78.7369899 121.665835,77.3373473 L124.190321,74.8217735 C124.498764,74.5159957 124.498764,74.0179247 124.190321,73.7089946 C123.881878,73.4016407 123.380461,73.4016407 123.072018,73.7089946 Z M90.2209655,85.7652435 C90.3704427,85.9186178 90.5713028,86 90.778391,86 C90.8531297,86 90.9278683,85.9890447 91.0010498,85.9671341 L106.571596,81.3048704 C106.697717,81.2673094 106.809825,81.2000125 106.901691,81.1061099 L133.511754,54.1795418 C133.549123,54.1419807 133.567808,54.0934644 133.595835,54.0512082 L139.288426,48.3294103 C139.7462,47.8677225 140,47.2557907 140,46.6031676 C140,45.9505446 139.7462,45.3401778 139.288426,44.8816201 L131.137245,36.690184 C130.221697,35.7699387 128.622602,35.7699387 127.707054,36.690184 L121.885227,42.5418806 C121.847858,42.5794416 121.827616,42.6279579 121.799589,42.6717791 L95.1490432,69.4606235 C95.0618481,69.5482659 94.9964519,69.6546889 94.9590825,69.7720671 L90.0387901,84.9764618 C89.9484809,85.2534744 90.0185484,85.5555277 90.2209655,85.7652435 Z M122.315217,44.9285714 L123.928571,46.5488243 L99.8245342,70.8214286 L97.1428571,70.2101301 L122.315217,44.9285714 Z M100.714286,71.5772439 L125.428263,46.7142857 L129.285714,50.5848229 L104.348461,75.2857143 L100.714286,75.2857143 L100.714286,71.5772439 Z M131.071429,52.9748536 L106.066758,78.8571429 L105.178571,75.6887227 L129.325843,51.1785714 L131.071429,52.9748536 Z M96.0822211,70.8214286 L99.2489818,71.5510753 L99.2489818,75.8473502 C99.2489818,76.2889785 99.6024219,76.6474014 100.037911,76.6474014 L104.17821,76.6474014 L105.178571,80.1676267 L91.7857143,84.2142857 L96.0822211,70.8214286 Z M128.389027,38.0371217 C128.724105,37.7019118 129.306919,37.7019118 129.641998,38.0371217 L137.955434,46.3538207 C138.122179,46.5206312 138.214286,46.7430454 138.214286,46.9797575 C138.214286,47.214881 138.122179,47.4388838 137.953846,47.607283 L132.600533,52.9642857 L123.035714,43.395713 L128.389027,38.0371217 Z" id="Tools"></path>
                    </g>
                </g>
            </g>
        </g>
    </g>
</svg>