<?xml version="1.0" encoding="UTF-8"?><!DOCTYPE svg PUBLIC "-//W3C//DTD SVG 1.1//EN" "http://www.w3.org/Graphics/SVG/1.1/DTD/svg11.dtd"><svg xmlns="http://www.w3.org/2000/svg" xmlns:xlink="http://www.w3.org/1999/xlink"><defs/>
<symbol id="icon-warning" viewBox="0 0 19 17">
<path d="M39.9123926,31.0366667 L31.0976773,15.3286667 C30.974962,15.1256111 30.747345,15 30.4999353,15 C30.2525255,15 30.0239189,15.1256111 29.9021932,15.3286667 L21.0884675,31.0366667 C20.9687212,31.2359444 20.9707005,31.4815 21.0934157,31.6788889 C21.2171206,31.8781667 21.4417687,32 21.6852199,32 L39.3146506,32 C39.5571122,32 39.7837395,31.8781667 39.9064548,31.6788889 C40.02917,31.4815 40.0311493,31.2359444 39.9123926,31.0366667 Z M31.4895743,30.1111111 L29.5102962,30.1111111 L29.5102962,28.2222222 L31.4895743,28.2222222 L31.4895743,30.1111111 Z M31.4895743,26.8055556 L29.5102962,26.8055556 L29.5102962,20.6666667 L31.4895743,20.6666667 L31.4895743,26.8055556 Z" id="Warning"/>
</symbol></svg>